<svg width="59" height="59" viewBox="0 0 59 59" fill="none" xmlns="http://www.w3.org/2000/svg">
<circle cx="29.5" cy="29.5" r="29.5" fill="white"/>
<circle cx="29.5002" cy="29.5" r="27.0081" fill="#02C697"/>
<path d="M9.33398 29.2119C9.33398 18.2336 18.2336 9.33398 29.2119 9.33398V9.33398C40.1902 9.33398 49.0898 18.2336 49.0898 29.2119V46.6051C49.0898 47.5823 49.0898 48.071 48.8626 48.426C48.7503 48.6014 48.6014 48.7503 48.426 48.8626C48.071 49.0898 47.5823 49.0898 46.6051 49.0898H29.2119C18.2336 49.0898 9.33398 40.1902 9.33398 29.2119V29.2119Z" fill="white"/>
<rect x="22.4131" y="14.4043" width="13.5977" height="29.6152" rx="1.44043" fill="#02C697"/>
<rect x="14.4043" y="36.0107" width="13.5977" height="29.6152" rx="1.44043" transform="rotate(-90 14.4043 36.0107)" fill="#02C697"/>
</svg>
